<svg width="1500" height="1200" viewBox="0 0 1500 1200" fill="none" xmlns="http://www.w3.org/2000/svg">
<rect width="1500" height="1200" fill="white"/>
<rect x="475.176" y="276" width="515.735" height="387.108" rx="22" fill="#FC7A73"/>
<rect x="579.305" y="594.506" width="44.1009" height="68.6014" fill="#1A2D44"/>
<rect x="647.906" y="622.682" width="44.1009" height="40.4258" fill="#A9489F"/>
<rect x="716.508" y="632.482" width="44.1009" height="30.6256" fill="#6EB8BE"/>
<rect x="785.109" y="574.906" width="44.1009" height="88.2018" fill="#4F2C54"/>
<rect x="853.711" y="594.506" width="44.1009" height="68.6014" fill="#A9489F"/>
<path d="M475.176 579.807L582.365 535.706L650.967 562.044L778.982 483.643L848.808 535.706L987.849 483.643" stroke="#6EB8BE" stroke-width="2"/>
<path d="M475.176 570.619L576.853 504.468L647.292 518.555C679.551 488.747 745.784 429.129 752.644 429.129C759.504 429.129 811.445 454.854 836.558 467.717L991.524 380.74" stroke="#6EB8BE" stroke-width="2"/>
<circle cx="755.096" cy="430.967" r="10.4127" fill="#4F2C54"/>
<circle cx="838.397" cy="467.717" r="10.4127" fill="#4F2C54"/>
<circle cx="648.518" cy="517.944" r="10.4127" fill="#4F2C54"/>
<circle cx="579.917" cy="504.469" r="10.4127" fill="#4F2C54"/>
<path d="M1041.82 484.504C1041.82 504.872 1047.47 524.843 1058.13 542.2C1068.78 559.557 1084.04 573.621 1102.21 582.834C1120.38 592.047 1140.74 596.047 1161.04 594.391C1181.34 592.735 1200.79 585.487 1217.22 573.452C1233.65 561.418 1246.43 545.066 1254.14 526.211C1261.84 507.356 1264.17 486.735 1260.87 466.635C1257.57 446.536 1248.77 427.744 1235.43 412.344C1222.1 396.944 1204.77 385.538 1185.35 379.391L1152.08 484.504H1041.82Z" fill="#6EB8BE"/>
<path d="M1031.73 421.133C1043.67 396.089 1064.61 376.467 1090.38 366.181L1131.25 468.578L1031.73 421.133Z" fill="#4E2D50"/>
<path d="M1041.53 326.807C1053.47 301.762 1074.41 282.14 1100.18 271.855L1141.05 374.252L1041.53 326.807Z" fill="#A9489F"/>
<path d="M510.876 580.755C495.849 596.283 502.246 651.587 507.322 677.298C504.107 684.279 502.651 697.424 522.551 694.155C547.426 690.068 590.577 585.352 575.347 596.59C560.118 607.828 549.457 599.655 549.457 580.755C558.087 526.609 543.873 532.228 540.827 546.02C537.781 559.812 529.659 561.344 510.876 580.755Z" fill="#FFBE79"/>
<path d="M518.218 852.994C522.608 836.771 478.586 801.991 456.025 786.629C445.66 791.954 424.076 807.276 420.661 825.956C416.393 849.307 512.73 873.272 518.218 852.994Z" fill="#FFBE79"/>
<path d="M415.778 605.315C412.518 603.288 409.427 601.39 406.523 599.629C408.144 599.629 411.706 601.25 415.778 605.315C494.767 654.431 672.733 779.092 676.496 850.811C679.492 907.926 412.023 844.67 432.235 704.646C440.977 644.085 426.582 616.099 415.778 605.315Z" fill="#4F2C54"/>
<path d="M263.049 633.448C292.461 597.922 333.515 575.872 370.892 580.16C468.932 600.373 484.864 746.764 471.383 776.164C460.599 799.685 447.69 840.274 442.584 857.629H220.523C203.775 830.066 170.523 764.159 170.523 755.339C170.523 744.314 243.082 657.565 263.049 633.448Z" fill="#4F2C54"/>
<path d="M391.445 526.431V586.647C383.296 601.215 342.871 600.019 330.621 583.481L335.912 497.553L391.445 526.431Z" fill="#FFBE79"/>
<path d="M352.575 506.219L391.445 526.432V556.158L368.926 535.491L352.575 506.219Z" fill="#1A2D44"/>
<path d="M324.467 431.77L434.766 435.271C433.295 452.73 428.925 566.8 391.442 545.316C378.986 538.176 349.425 526.646 330.834 513.149C312.243 499.651 317.782 474.216 322.875 468.698L324.467 431.77Z" fill="#FFBE79"/>
<path d="M322.877 468.693C317.783 474.211 312.244 499.647 330.835 513.144C331.764 513.819 332.721 514.489 333.702 515.153C333.995 515.37 334.28 515.561 334.555 515.726C334.268 515.535 333.984 515.344 333.702 515.153C327.945 510.906 318.865 496.713 322.877 468.693Z" fill="#FF8F40"/>
<path d="M369.652 444.546C380.042 450.274 462.453 486.506 442.833 411.061C426.58 348.567 386.724 376.411 368.827 398.145C364.487 393.84 353.309 387.812 343.321 398.145C330.835 390.418 321.285 404.175 322.877 411.061C321.232 410.226 317.906 413.933 319.845 395.389C316.878 402.596 315.591 411.041 317.906 417.489C312.246 422.505 304.566 430.389 310.537 447.114C296.73 461.709 319.103 501.434 325.852 514.058C332.601 526.681 331.751 532.305 331.751 536.474C342.645 536.474 357.15 530.04 359.501 526.341C342.742 487.646 350.394 483.59 353.093 481.977C355.792 480.364 359.142 478.986 364.269 489.24C390.467 465.304 376.929 449.142 369.652 444.546Z" fill="#1A2D44"/>
<path d="M419.318 456.234C420.978 455.894 422.543 455.363 424.009 454.66C457.477 440.429 434.174 377.982 413.186 373.721C445.873 395.917 445.795 444.221 424.009 454.66C422.554 455.279 420.992 455.806 419.318 456.234Z" fill="#6EB8BE"/>
<path d="M413.673 454.656C438.059 445.829 438.282 402.756 411.588 375.301C440.762 396.273 443.43 448.707 413.673 454.656Z" fill="#6EB8BE"/>
<path d="M415.878 443.712C434.624 428.151 422.818 403.405 409.883 383.908C424.314 395.718 436.873 430.588 415.878 443.712Z" fill="#6EB8BE"/>
<path d="M370.074 403.213C365.734 398.908 354.557 392.88 344.568 403.213C332.083 395.486 322.533 409.243 324.124 416.13C326.611 404.424 338.79 402.642 344.568 403.213C352.995 396.377 365.083 400.365 370.074 403.213Z" fill="#6EB8BE"/>
<path d="M367.359 443.715C365.736 450.558 360.162 461.24 350.85 449.218C355.507 451.334 364.292 451.44 367.359 443.715Z" fill="#6EB8BE"/>
<path d="M348.331 454.262C350.566 462.513 352.891 480.105 344.311 484.466C346.901 478.748 349.849 478.964 348.331 454.262Z" fill="#6EB8BE"/>
<path d="M318.353 403.402C318.757 411.305 320.329 412.128 322.336 411.88C321.34 412.395 318.827 414.407 318.353 417.438C317.702 412.972 317.126 406.468 318.353 403.402Z" fill="#6EB8BE"/>
<path d="M137.269 856.168C132.862 715.346 183.522 684.168 217.522 689.168C210.381 702.662 193.575 730.762 188.188 743.52C182.802 756.277 231.333 826.115 256.022 856.168H137.269Z" fill="#A9489F"/>
<path d="M218.023 688.67C210.915 702.189 193.858 730.847 188.496 743.628L175.023 703.67C189.619 689.721 206.559 686.84 218.023 688.67Z" fill="#040101"/>
<rect x="137.523" y="854.627" width="786" height="18" rx="9" fill="#6EB8BE"/>
</svg>
