<svg width="1500" height="1200" viewBox="0 0 1500 1200" fill="none" xmlns="http://www.w3.org/2000/svg">
<rect width="1500" height="1200" fill="white"/>
<path d="M1024.49 656.865C995.008 538.116 968.435 504.955 957.002 503C830.336 481.337 909.002 663.5 949.002 722C921.502 735.993 917.002 741.5 842.266 735.993L856.923 802.299C885.706 800.594 927.71 798.207 1000.64 802.299C1091.8 807.414 1053 771.687 1024.49 656.865Z" fill="#A9489F"/>
<path d="M873.113 455.5C870.798 460.129 875.046 473.079 848.857 477.84L837.944 479.824C831.992 483.792 834.113 465.46 834.113 460.5C831.324 461.961 807.369 473.018 803.613 475C675.235 506.762 733.319 671.509 746.734 767.509C746.921 781.647 740.167 795.635 732.178 808.5H934.83L928.218 686.163C918.959 619.368 913.734 490.538 966.906 509.585C959.764 499.268 916.975 482.8 896.473 475.856L873.113 455.5Z" fill="#A9489F"/>
<path d="M759.5 773L752.5 585" stroke="#6EB8BE"/>
<path d="M848.849 477.84C875.038 473.079 875.303 464.629 877.618 460L896.466 475.856C903.769 478.33 913.901 482.012 924.242 486.195C911.346 509.202 883.966 555.813 877.618 558.193C869.681 561.17 855.793 568.114 855.793 571.09C855.793 573.47 861.745 587.293 864.721 593.906L811.153 658.387C801.894 639.208 782.186 598.469 777.424 588.946C771.472 577.042 784.368 573.074 787.344 563.154C789.725 555.217 778.416 554.556 772.464 555.217C769.29 543.313 776.297 502.641 780.198 483.792C797.603 473.592 816.774 469.816 833.605 461C833.605 465.96 831.985 483.792 837.937 479.824L848.849 477.84Z" fill="#F1DEC1"/>
<path d="M837.939 479.824L848.852 477.84V498.672C844.883 518.512 836.947 560.177 836.947 568.113C836.947 576.049 823.049 627.634 816.1 652.434L811.155 658.387C810.283 656.579 809.317 654.58 808.28 652.434C808.908 629.618 810.361 581.406 811.155 571.089C811.949 560.772 825.374 518.512 831.987 498.672H826.516L837.939 479.824Z" fill="#FC7A73"/>
<path d="M879.609 460.977C877.294 465.606 875.041 473.079 848.852 477.841L837.94 479.825C831.988 483.793 833.608 465.937 833.608 460.977C830.819 462.437 817.364 467.518 813.608 469.5C813.608 473.665 816.116 498.837 818.1 512.561L837.94 479.825L848.852 477.841V514.545L896.469 475.857L879.609 460.977Z" fill="#A9489F"/>
<path d="M866.264 737.541L875.29 799.52C777.407 803.431 628.577 795.668 748.925 746.567C715.83 726.409 719.139 715.276 764.871 726.409C801.457 735.314 847.71 737.541 866.264 737.541Z" fill="#FFBE79"/>
<path d="M831.099 416.391L831.07 476.098C837.421 494.437 870.321 476.336 880.031 461.583L875.614 393.242L831.099 416.391Z" fill="#FCC170"/>
<path d="M831.102 416.396V446.633L862.26 400.193L831.102 416.396Z" fill="#1A2D44"/>
<path d="M895.472 346.57L807.892 334.128C807.953 332.522 796.952 418.113 826.93 426.997C837.965 430.267 862.683 418.048 879.224 409.953C895.766 401.858 894.899 381.01 891.638 375.95L895.472 346.57Z" fill="#FCC170"/>
<path d="M879.568 387.388C886.347 380.629 882.421 370.518 879.968 368.576C879.516 368.355 878.364 368.008 877.372 368.389C880.34 371.247 884.627 379.341 878.03 388.85C878.564 388.364 879.078 387.876 879.568 387.388Z" fill="#1A2D44"/>
<path d="M876.265 386.366C877.624 385.703 879.357 383.971 879.781 380.999M878.346 373.989C880.012 375.279 880.12 378.621 879.781 380.999M879.781 380.999C874.214 379.728 873.214 374.641 876.346 374.243" stroke="#1A2D44"/>
<path d="M898.518 357.573C911.302 375.424 940.663 418.263 984.748 412.405M846.128 362.327C845.435 385.792 856.305 430.904 908.662 407.778M799.554 323.312C801.208 325.047 810.379 329.354 816.421 328.578M1136.85 446.538C1141.79 427.058 1137.53 388.567 1080.93 390.443C1053.63 391.419 1021.19 388.007 1010.72 386.794M1078.6 451.866C1082.92 448.973 1088.93 436.232 1084.27 425.988" stroke="#1A2D44"/>
<path d="M809.351 331.214C796.284 351.519 826.147 369.634 831.083 357.142C839.991 334.597 843.048 356.008 845.297 366.29C847.655 369.704 857.293 382.062 863.331 378.358C890.138 361.916 891.665 382.87 873.08 393.471C869.44 395.547 870.988 411.238 876.847 410.815C887.926 410.016 900.728 384.973 898.52 357.573C911.304 375.424 955.37 413.785 982.88 413.905C992.859 417.315 1006.65 419.337 1014.22 419.303C1047.87 419.152 1071.62 423.07 1085.73 430.38C1096.49 435.955 1101.63 443.504 1101.28 452.725C1111.74 443.078 1114.24 410.533 1052.88 398.169C1037.06 394.982 1024.93 391.6 1015.4 388.026C987.978 377.738 982.055 365.853 971.326 352.406C938.131 295.915 925.294 301.706 896.577 326.982C896.862 319.462 879.696 306.258 866.432 323.33C860.003 305.412 827.161 309.722 812.069 327.549C811.083 328.714 810.173 329.936 809.351 331.214Z" fill="#040101"/>
<path d="M898.95 359.064C900.75 350.449 903.684 332.605 897.248 326.071C891.643 331.265 896.532 357.989 898.95 359.064Z" fill="#A9489F"/>
<rect x="112" y="800" width="1148" height="22" rx="10" fill="#6EB8BE"/>
<path d="M738.22 616H529.723C525.246 616 521.919 620.145 522.889 624.516L560.634 794.705H784.836L745.043 621.433C744.312 618.254 741.483 616 738.22 616Z" fill="#4E2D50"/>
<rect x="562.742" y="793.533" width="359.286" height="9.84988" fill="#4E2D50"/>
<circle cx="650.219" cy="701.365" r="12.8987" fill="#F1DEC1"/>
<path d="M579 324.439V320.276C579 317.284 579.643 314.562 580.93 312.111C582.216 309.66 584.056 307.695 586.45 306.217C588.844 304.739 591.685 304 594.972 304C598.331 304 601.19 304.739 603.548 306.217C605.942 307.695 607.783 309.66 609.069 312.111C610.355 314.562 610.998 317.284 610.998 320.276V324.439C610.998 327.359 610.355 330.045 609.069 332.496C607.818 334.947 605.996 336.912 603.602 338.39C601.243 339.868 598.403 340.607 595.08 340.607C591.757 340.607 588.88 339.868 586.45 338.39C584.056 336.912 582.216 334.947 580.93 332.496C579.643 330.045 579 327.359 579 324.439ZM586.45 320.276V324.439C586.45 326.097 586.754 327.666 587.361 329.144C588.005 330.621 588.969 331.829 590.256 332.766C591.542 333.668 593.15 334.118 595.08 334.118C597.009 334.118 598.599 333.668 599.85 332.766C601.101 331.829 602.03 330.621 602.637 329.144C603.245 327.666 603.548 326.097 603.548 324.439V320.276C603.548 318.581 603.227 316.995 602.583 315.517C601.976 314.003 601.029 312.796 599.743 311.895C598.492 310.957 596.902 310.489 594.972 310.489C593.079 310.489 591.489 310.957 590.202 311.895C588.952 312.796 588.005 314.003 587.361 315.517C586.754 316.995 586.45 318.581 586.45 320.276ZM617.002 368.778V364.561C617.002 361.605 617.645 358.901 618.931 356.45C620.217 353.999 622.058 352.034 624.452 350.556C626.846 349.078 629.687 348.339 632.974 348.339C636.333 348.339 639.191 349.078 641.55 350.556C643.944 352.034 645.784 353.999 647.07 356.45C648.357 358.901 649 361.605 649 364.561V368.778C649 371.734 648.357 374.438 647.07 376.889C645.82 379.34 643.997 381.305 641.603 382.783C639.245 384.261 636.404 385 633.081 385C629.758 385 626.899 384.261 624.505 382.783C622.111 381.305 620.253 379.34 618.931 376.889C617.645 374.438 617.002 371.734 617.002 368.778ZM624.452 364.561V368.778C624.452 370.437 624.755 372.023 625.363 373.537C626.006 375.015 626.971 376.222 628.257 377.16C629.544 378.061 631.152 378.511 633.081 378.511C635.011 378.511 636.601 378.061 637.851 377.16C639.138 376.222 640.085 375.015 640.692 373.537C641.3 372.059 641.603 370.473 641.603 368.778V364.561C641.603 362.866 641.282 361.28 640.639 359.802C640.031 358.324 639.084 357.135 637.798 356.234C636.547 355.296 634.939 354.828 632.974 354.828C631.08 354.828 629.49 355.296 628.204 356.234C626.953 357.135 626.006 358.324 625.363 359.802C624.755 361.28 624.452 362.866 624.452 364.561ZM635.44 316.328L597.331 377.862L591.757 374.294L629.865 312.76L635.44 316.328Z" fill="#FC7A73"/>
<path d="M488.258 381V397.374H480.21V381H488.258ZM487.292 468.666V483H479.298V468.666H487.292ZM498.021 451.702C498.021 449.555 497.539 447.622 496.573 445.904C495.607 444.186 494.016 442.612 491.798 441.18C489.581 439.748 486.612 438.424 482.893 437.207C478.386 435.812 474.488 434.112 471.197 432.107C467.943 430.103 465.421 427.616 463.633 424.645C461.881 421.675 461.004 418.078 461.004 413.855C461.004 409.453 461.952 405.659 463.848 402.474C465.743 399.288 468.426 396.837 471.895 395.119C475.364 393.401 479.441 392.542 484.127 392.542C487.775 392.542 491.029 393.097 493.891 394.206C496.752 395.28 499.166 396.891 501.133 399.038C503.136 401.185 504.656 403.816 505.693 406.929C506.766 410.043 507.303 413.64 507.303 417.72H497.431C497.431 415.322 497.145 413.121 496.573 411.117C496.001 409.113 495.142 407.377 493.998 405.909C492.853 404.406 491.459 403.261 489.813 402.474C488.168 401.651 486.273 401.239 484.127 401.239C481.122 401.239 478.637 401.758 476.67 402.796C474.738 403.834 473.308 405.301 472.378 407.198C471.448 409.059 470.983 411.224 470.983 413.694C470.983 415.984 471.448 417.988 472.378 419.706C473.308 421.424 474.881 422.981 477.099 424.377C479.352 425.737 482.446 427.079 486.38 428.403C490.994 429.871 494.91 431.606 498.129 433.611C501.348 435.579 503.798 438.013 505.479 440.912C507.16 443.775 508 447.336 508 451.595C508 456.212 506.963 460.113 504.888 463.298C502.814 466.447 499.899 468.845 496.144 470.492C492.388 472.138 487.989 472.961 482.946 472.961C479.906 472.961 476.902 472.549 473.933 471.726C470.965 470.903 468.283 469.561 465.886 467.7C463.49 465.803 461.577 463.316 460.146 460.238C458.715 457.124 458 453.313 458 448.803H467.979C467.979 451.845 468.408 454.368 469.266 456.373C470.16 458.341 471.34 459.916 472.807 461.097C474.273 462.242 475.883 463.065 477.635 463.566C479.423 464.032 481.194 464.264 482.946 464.264C486.165 464.264 488.883 463.763 491.101 462.761C493.354 461.723 495.071 460.256 496.251 458.359C497.431 456.462 498.021 454.243 498.021 451.702Z" fill="#FC7A73"/>
</svg>
